<svg width="50" height="50" viewBox="0 0 50 50" fill="none" xmlns="http://www.w3.org/2000/svg">
<path d="M38.8457 30.8594H18.8135C18.4811 30.8599 18.1584 30.7474 17.8984 30.5403C17.6384 30.3332 17.4566 30.0438 17.3828 29.7197L14.0098 15.0244C13.9604 14.8098 13.9601 14.5867 14.0089 14.3719C14.0577 14.1571 14.1543 13.9561 14.2915 13.7838C14.4287 13.6115 14.603 13.4723 14.8014 13.3767C14.9998 13.2811 15.2172 13.2314 15.4375 13.2314H42.2217C42.4422 13.231 42.6599 13.2803 42.8587 13.3758C43.0575 13.4712 43.2322 13.6103 43.3697 13.7827C43.5073 13.955 43.6041 14.1562 43.653 14.3712C43.702 14.5862 43.7017 14.8095 43.6523 15.0244L40.2734 29.7197C40.1998 30.0433 40.0184 30.3323 39.759 30.5394C39.4996 30.7464 39.1776 30.8593 38.8457 30.8594ZM19.9795 27.9297H37.6797L40.3818 16.1641H17.2764L19.9795 27.9297Z" fill="#EDEDED"/>
<path d="M21.6797 43.9453C20.5695 43.9453 19.4842 43.6161 18.5611 42.9993C17.638 42.3825 16.9185 41.5058 16.4937 40.4801C16.0688 39.4544 15.9577 38.3258 16.1743 37.2369C16.3909 36.1481 16.9255 35.1479 17.7105 34.3628C18.4955 33.5778 19.4957 33.0432 20.5846 32.8266C21.6735 32.61 22.8021 32.7212 23.8278 33.146C24.8535 33.5709 25.7302 34.2904 26.347 35.2135C26.9638 36.1366 27.293 37.2218 27.293 38.332C27.2914 39.8203 26.6995 41.2471 25.6472 42.2995C24.5948 43.3519 23.1679 43.9438 21.6797 43.9453ZM21.6797 35.6494C21.1489 35.6494 20.63 35.8068 20.1887 36.1018C19.7473 36.3967 19.4034 36.8158 19.2003 37.3063C18.9972 37.7967 18.9441 38.3363 19.0477 38.8569C19.1514 39.3775 19.407 39.8557 19.7824 40.2309C20.1579 40.6062 20.6361 40.8617 21.1567 40.9652C21.6774 41.0686 22.217 41.0153 22.7073 40.812C23.1977 40.6088 23.6167 40.2647 23.9115 39.8232C24.2063 39.3818 24.3635 38.8628 24.3633 38.332C24.3625 37.6206 24.0795 36.9386 23.5764 36.4356C23.0732 35.9327 22.3911 35.6499 21.6797 35.6494Z" fill="#EDEDED"/>
<path d="M35.9785 43.9453C34.8683 43.9453 33.783 43.6161 32.8599 42.9993C31.9368 42.3825 31.2174 41.5058 30.7925 40.4801C30.3677 39.4544 30.2565 38.3258 30.4731 37.2369C30.6897 36.1481 31.2243 35.1479 32.0093 34.3628C32.7944 33.5778 33.7946 33.0432 34.8834 32.8266C35.9723 32.61 37.1009 32.7212 38.1266 33.146C39.1523 33.5709 40.029 34.2904 40.6458 35.2135C41.2626 36.1366 41.5918 37.2218 41.5918 38.332C41.5902 39.8203 40.9984 41.2471 39.946 42.2995C38.8936 43.3519 37.4668 43.9438 35.9785 43.9453ZM35.9785 35.6494C35.4477 35.6494 34.9288 35.8068 34.4875 36.1018C34.0462 36.3967 33.7022 36.8158 33.4991 37.3063C33.296 37.7967 33.2429 38.3363 33.3466 38.8569C33.4502 39.3775 33.7059 39.8557 34.0813 40.2309C34.4567 40.6062 34.9349 40.8617 35.4556 40.9652C35.9762 41.0686 36.5158 41.0153 37.0062 40.812C37.4965 40.6088 37.9156 40.2647 38.2103 39.8232C38.5051 39.3818 38.6623 38.8628 38.6621 38.332C38.6613 37.6206 38.3783 36.9386 37.8752 36.4356C37.3721 35.9327 36.6899 35.6499 35.9785 35.6494Z" fill="#EDEDED"/>
<path d="M15.4375 16.1611C15.13 16.1611 14.8303 16.0643 14.5809 15.8845C14.3315 15.7047 14.145 15.4509 14.0479 15.1592L11.5371 7.61719H6.9043C6.5158 7.61719 6.14321 7.46286 5.8685 7.18815C5.59378 6.91343 5.43945 6.54084 5.43945 6.15234C5.43945 5.76384 5.59378 5.39125 5.8685 5.11654C6.14321 4.84183 6.5158 4.6875 6.9043 4.6875H12.5977C12.9051 4.68753 13.2048 4.78431 13.4542 4.96414C13.7036 5.14397 13.8901 5.39773 13.9873 5.68945L16.832 14.2334C16.9054 14.4536 16.9253 14.688 16.8903 14.9174C16.8553 15.1468 16.7662 15.3646 16.6305 15.5529C16.4948 15.7411 16.3163 15.8945 16.1098 16.0002C15.9032 16.106 15.6744 16.1611 15.4424 16.1611H15.4375Z" fill="#EDEDED"/>
</svg>
